<svg width="15" height="12" viewBox="0 0 15 12" fill="none" xmlns="http://www.w3.org/2000/svg">
<path d="M14.708 0.792017C14.8011 0.884909 14.875 0.99526 14.9254 1.11675C14.9758 1.23824 15.0018 1.36848 15.0018 1.50002C15.0018 1.63155 14.9758 1.76179 14.9254 1.88329C14.875 2.00478 14.8011 2.11513 14.708 2.20802L5.70798 11.208C5.61509 11.3011 5.50474 11.375 5.38325 11.4254C5.26176 11.4759 5.13152 11.5018 4.99998 11.5018C4.86845 11.5018 4.7382 11.4759 4.61671 11.4254C4.49522 11.375 4.38487 11.3011 4.29198 11.208L0.291981 7.20802C0.104208 7.02024 -0.00128174 6.76557 -0.00128174 6.50002C-0.00128174 6.23447 0.104208 5.97979 0.291981 5.79202C0.479755 5.60424 0.73443 5.49875 0.999981 5.49875C1.26553 5.49875 1.52021 5.60424 1.70798 5.79202L4.99998 9.08602L13.292 0.792017C13.3849 0.698891 13.4952 0.625005 13.6167 0.574593C13.7382 0.52418 13.8684 0.49823 14 0.49823C14.1315 0.49823 14.2618 0.52418 14.3832 0.574593C14.5047 0.625005 14.6151 0.698891 14.708 0.792017Z" fill="#020202"/>
</svg>
