<svg width="22" height="23" viewBox="0 0 22 23" fill="none" xmlns="http://www.w3.org/2000/svg">
<path d="M17.99 18.5H18M17.99 18.5C17.368 19.117 16.24 18.964 15.448 18.964C14.476 18.964 14.008 19.154 13.315 19.847C12.725 20.437 11.934 21.5 11 21.5C10.066 21.5 9.275 20.437 8.685 19.847C7.991 19.154 7.523 18.964 6.552 18.964C5.761 18.964 4.632 19.118 4.009 18.5C3.382 17.878 3.536 16.744 3.536 15.948C3.536 14.941 3.316 14.478 2.599 13.762C1.533 12.696 1 12.162 1 11.5C1 10.838 1.533 10.304 2.6 9.238C3.24 8.598 3.536 7.964 3.536 7.052C3.536 6.261 3.382 5.132 4 4.509C4.622 3.882 5.756 4.036 6.552 4.036C7.464 4.036 8.098 3.739 8.738 3.099C9.804 2.033 10.338 1.5 11 1.5C11.662 1.5 12.196 2.033 13.262 3.1C13.902 3.74 14.536 4.036 15.448 4.036C16.239 4.036 17.368 3.882 17.991 4.5C18.618 5.122 18.464 6.256 18.464 7.052C18.464 8.059 18.684 8.522 19.401 9.238C20.467 10.304 21 10.838 21 11.5C21 12.162 20.467 12.696 19.4 13.762C18.684 14.479 18.464 14.942 18.464 15.948C18.464 16.744 18.617 17.878 17.99 18.5Z" stroke="#020202" stroke-width="1.5" stroke-linecap="round" stroke-linejoin="round"/>
<path d="M8 12.393L9.8 14L14 9" stroke="#020202" stroke-width="1.5" stroke-linecap="round" stroke-linejoin="round"/>
</svg>
