<svg width="17" height="20" viewBox="0 0 17 20" fill="none" xmlns="http://www.w3.org/2000/svg">
<path d="M3 18.5C3 18.5 3.5 14 7 10" stroke="#020202" stroke-width="1.5" stroke-linecap="round" stroke-linejoin="round"/>
<path d="M15.13 1.74198L15.724 7.91698C16.098 11.803 13.184 15.263 9.29903 15.637C5.48603 16.004 2.03203 13.217 1.66503 9.40398C1.48867 7.57293 2.04691 5.74681 3.21695 4.32735C4.38699 2.90789 6.07298 2.01136 7.90403 1.83498L14.475 1.20298C14.5535 1.19539 14.6327 1.20335 14.7081 1.22638C14.7835 1.24942 14.8536 1.28709 14.9144 1.33724C14.9753 1.38739 15.0256 1.44904 15.0626 1.51866C15.0996 1.58828 15.1225 1.6635 15.13 1.74198Z" stroke="#020202" stroke-width="1.5" stroke-linecap="round" stroke-linejoin="round"/>
</svg>
