<svg width="90" height="18" viewBox="0 0 90 18" fill="none" xmlns="http://www.w3.org/2000/svg">
<path d="M4.36875 15.75L5.5875 10.4813L1.5 6.9375L6.9 6.46875L9 1.5L11.1 6.46875L16.5 6.9375L12.4125 10.4813L13.6312 15.75L9 12.9562L4.36875 15.75Z" fill="#020202"/>
<path d="M22.3687 15.75L23.5875 10.4813L19.5 6.9375L24.9 6.46875L27 1.5L29.1 6.46875L34.5 6.9375L30.4125 10.4813L31.6312 15.75L27 12.9562L22.3687 15.75Z" fill="#020202"/>
<path d="M40.3687 15.75L41.5875 10.4813L37.5 6.9375L42.9 6.46875L45 1.5L47.1 6.46875L52.5 6.9375L48.4125 10.4813L49.6312 15.75L45 12.9562L40.3687 15.75Z" fill="#020202"/>
<path d="M58.3687 15.75L59.5875 10.4813L55.5 6.9375L60.9 6.46875L63 1.5L65.1 6.46875L70.5 6.9375L66.4125 10.4813L67.6312 15.75L63 12.9562L58.3687 15.75Z" fill="#020202"/>
<path d="M76.3687 15.75L77.5875 10.4813L73.5 6.9375L78.9 6.46875L81 1.5L83.1 6.46875L88.5 6.9375L84.4125 10.4813L85.6312 15.75L81 12.9562L76.3687 15.75Z" fill="#020202"/>
</svg>
